<?xml version="1.0" standalone="no"?>
<!DOCTYPE svg PUBLIC "-//W3C//DTD SVG 20010904//EN"
 "http://www.w3.org/TR/2001/REC-SVG-20010904/DTD/svg10.dtd">
<svg version="1.0" xmlns="http://www.w3.org/2000/svg"
 width="100.000000pt" height="100.000000pt" viewBox="0 0 490.000000 490.000000"
 preserveAspectRatio="xMidYMid meet">

<g transform="translate(0.000000,490.000000) scale(0.100000,-0.100000)"
fill="#ffffff" stroke="none">
<path d="M0 2450 l0 -2450 2450 0 2450 0 0 2450 0 2450 -2450 0 -2450 0 0
-2450z m2511 1935 c74 -13 285 -52 469 -85 260 -48 375 -74 515 -117 203 -62
220 -69 266 -115 61 -62 73 -106 168 -628 50 -272 109 -565 132 -650 117 -436
129 -487 135 -580 11 -173 -34 -418 -141 -770 -35 -115 -71 -246 -80 -292 -29
-154 -34 -166 -84 -209 -69 -59 -199 -138 -256 -155 -146 -44 -284 -50 -613
-28 -81 6 -103 4 -185 -20 -50 -14 -155 -44 -232 -65 -77 -22 -198 -60 -270
-85 -189 -65 -316 -90 -455 -90 -316 1 -660 143 -850 350 -197 217 -312 451
-327 669 -4 66 -1 96 20 172 21 76 24 106 20 166 -12 155 39 357 128 503 72
120 170 219 308 313 267 181 408 220 721 199 295 -18 464 -88 620 -254 31 -33
65 -72 76 -88 l21 -28 22 53 c26 60 118 203 210 323 51 69 61 89 71 145 7 36
10 97 8 135 l-3 69 -100 29 c-55 16 -127 33 -160 38 -33 4 -72 12 -87 18 -20
9 -29 8 -38 -3 -17 -21 -105 -47 -159 -48 -37 -1 -62 8 -117 38 -38 21 -82 51
-97 67 -27 27 -29 32 -26 111 l3 82 -36 36 c-25 24 -42 54 -53 93 l-17 58 30
92 c17 50 43 143 57 206 15 63 38 144 51 179 13 35 24 72 24 82 0 27 55 84 92
96 50 16 74 15 219 -12z"/>
<path d="M2323 4348 c-35 -9 -73 -50 -73 -79 0 -10 -9 -42 -21 -71 -11 -28
-33 -108 -50 -177 -16 -69 -41 -161 -56 -203 -24 -70 -25 -81 -14 -119 12 -40
45 -81 83 -104 15 -9 16 -20 8 -89 -6 -48 -6 -85 0 -96 12 -23 128 -91 165
-97 45 -7 111 14 149 48 l34 30 43 -23 c25 -13 63 -22 93 -23 28 -1 60 -6 71
-12 33 -18 169 -53 203 -53 l32 0 0 -99 c0 -55 -7 -133 -15 -173 -16 -76 -30
-100 -166 -283 -33 -44 -85 -131 -115 -192 -30 -62 -60 -113 -66 -113 -7 0
-30 21 -52 46 -112 127 -167 181 -226 219 -143 93 -286 126 -550 128 -250 3
-348 -28 -576 -181 -293 -196 -424 -433 -424 -768 0 -84 -5 -134 -20 -186 -61
-219 34 -494 260 -757 123 -143 291 -250 489 -311 120 -37 265 -62 356 -62
119 1 357 56 520 121 44 18 143 48 220 67 77 20 175 47 218 61 l79 26 172 -13
c208 -16 384 -9 484 18 85 23 246 116 292 168 16 19 30 38 30 42 0 51 42 225
103 427 100 335 137 523 137 706 0 95 -29 229 -125 569 -24 85 -59 245 -79
355 -103 584 -154 834 -182 886 -37 67 -71 85 -274 149 -135 42 -249 66 -630
136 -256 46 -472 86 -480 87 -8 2 -29 0 -47 -5z m567 -169 c318 -66 423 -92
547 -135 187 -65 207 -76 221 -111 6 -15 16 -93 22 -173 6 -80 14 -158 17
-175 l6 -30 12 35 12 35 6 -30 c7 -34 97 -548 122 -695 9 -52 34 -167 56 -255
33 -131 43 -190 52 -325 21 -299 12 -427 -39 -600 -19 -63 -24 -58 -49 50 -30
131 -45 180 -57 180 -7 0 -8 -29 -2 -102 11 -123 12 -543 2 -646 -4 -41 -13
-84 -21 -96 -31 -47 -226 -124 -428 -169 -52 -12 -315 12 -443 39 -113 24
-175 23 -213 -3 -37 -27 -107 -29 -367 -13 -158 10 -207 7 -188 -12 10 -10
276 -88 301 -88 29 0 -5 -17 -119 -58 -171 -62 -237 -75 -375 -76 -142 0 -236
14 -365 56 -255 83 -453 209 -576 370 -115 148 -176 384 -139 528 10 38 18
116 20 190 4 155 23 236 85 365 59 123 143 215 276 302 169 109 273 129 609
114 135 -6 231 -16 270 -26 91 -25 202 -89 305 -176 51 -43 106 -83 122 -90
26 -11 29 -16 24 -43 -14 -74 -18 -297 -7 -377 21 -149 95 -356 149 -419 20
-23 23 -24 35 -8 12 15 10 28 -9 86 -30 92 -51 211 -64 357 -19 209 8 343 99
500 45 77 194 289 236 336 47 53 67 146 71 339 l4 155 35 23 c37 24 53 52 64
112 5 29 11 36 33 38 52 6 64 -10 83 -110 26 -136 34 -138 35 -10 l0 113 30
11 c36 12 46 29 71 117 25 88 25 101 -6 101 -19 0 -29 -9 -44 -39 -31 -60 -47
-71 -100 -71 -44 0 -50 4 -103 58 -56 56 -57 58 -48 97 6 28 6 42 -3 47 -20
13 -31 4 -59 -48 -33 -58 -54 -128 -63 -206 -6 -52 -5 -58 12 -58 30 0 61 28
68 60 6 27 35 44 35 20 0 -29 -35 -137 -48 -147 -8 -7 -40 -17 -70 -24 -60
-12 -126 -4 -193 25 l-36 15 17 83 c10 46 28 136 40 202 21 109 21 119 6 134
-33 33 -47 4 -95 -191 -43 -176 -47 -187 -69 -187 -25 0 -89 27 -97 40 -3 5 8
49 25 100 29 90 70 269 70 308 0 11 -8 28 -17 37 -16 16 -17 16 -30 0 -7 -10
-10 -22 -7 -27 3 -4 -13 -52 -35 -106 -22 -54 -50 -137 -62 -186 l-22 -88 -44
6 c-55 7 -83 22 -83 43 0 9 15 64 34 122 19 58 44 153 56 210 l23 105 -27 23
c-46 39 -73 23 -46 -27 8 -15 2 -40 -29 -112 -22 -51 -47 -122 -57 -158 -9
-36 -18 -71 -20 -78 -3 -9 -13 -8 -43 8 -22 11 -47 20 -56 20 -25 0 -34 40
-19 83 8 21 21 80 29 130 22 130 45 239 52 250 3 6 12 2 20 -8 12 -17 13 -15
13 21 0 71 8 84 50 84 23 0 51 -9 73 -25 41 -27 56 -18 31 20 -12 19 -13 24
-3 21 8 -3 192 -42 409 -87z m-493 -735 c39 -15 41 -18 26 -30 -22 -16 -87
-18 -114 -3 -26 14 -41 55 -34 91 l7 29 36 -36 c20 -19 56 -42 79 -51z"
fill="#ff0000"/>
<path d="M2534 4203 c-13 -2 -28 -19 -39 -42 -15 -34 -15 -42 -2 -66 l14 -28
19 39 c23 48 43 52 120 25 62 -22 68 -22 58 2 -15 41 -114 82 -170 70z"/>
<path d="M2727 4102 c-22 -24 -23 -124 -2 -142 13 -10 15 -9 16 11 2 28 5 59
7 76 3 21 36 23 105 4 37 -10 69 -15 72 -11 2 4 -8 19 -24 34 -48 46 -144 61
-174 28z"/>
<path d="M2964 4023 c-23 -4 -34 -37 -34 -99 0 -46 13 -43 30 9 17 47 22 48
130 34 l55 -7 -24 19 c-22 17 -74 36 -121 45 -8 2 -25 1 -36 -1z"/>
<path d="M1005 1770 c-4 -6 38 -55 92 -109 168 -168 352 -257 603 -295 218
-33 425 24 714 194 162 96 141 104 -97 35 -328 -94 -306 -90 -492 -89 -150 1
-182 4 -268 27 -54 14 -138 44 -187 66 -78 34 -125 60 -278 152 -36 22 -79 31
-87 19z"/>
</g>
</svg>
